<?xml version="1.0" encoding="UTF-8" standalone="no"?>

<svg fill="Currentcolor" width="599.99902" height="168.819" viewBox="0 0 158.74973 44.666694" xmlns:svg="http://www.w3.org/2000/svg" xmlns:xlink="http://www.w3.org/1999/xlink" xmlns="http://www.w3.org/2000/svg">
	<path d="M 23.333004 0 A 22.333262 22.333262 0 0 0 0 22.333521 A 22.333262 22.333262 0 0 0 7.2212646 38.724768 C 5.9564236 41.400818 3.768809 43.661394 0.017569987 44.666524 L 22.333004 44.666524 A 22.333262 22.333262 0 0 0 22.557796 44.650505 A 20.032265 20.032265 0 0 1 13.40435 27.834993 A 20.032265 20.032265 0 0 1 33.436719 7.8026245 A 20.032265 20.032265 0 0 1 33.687349 7.8170939 L 35.124988 4.0855387 A 22.333262 22.333262 0 0 0 22.333004 0 z M 41.206787 0.0010335286 C 40.865723 -0.013866471 40.541666 0.19165696 40.420272 0.53071696 L 39.140247 4.1062093 L 45.359505 6.3329468 L 46.640047 2.7579712 C 46.789453 2.3406312 46.573677 1.8842078 46.156356 1.7347778 L 41.443465 0.047542318 C 41.365225 0.019542318 41.285494 0.0044335286 41.206787 0.0010335286 z M 38.599711 5.6167114 L 38.202836 6.7241374 C 38.053427 7.1414474 38.26922 7.5979007 38.686528 7.7473307 L 43.399418 9.4345662 C 43.816735 9.5839962 44.273203 9.3682148 44.422611 8.9508748 L 44.81897 7.8434489 L 38.599711 5.6167114 z M 35.978682 7.9013265 C 35.773286 7.9127265 35.585443 8.0447259 35.511528 8.2511759 L 35.326526 8.7674235 C 35.227966 9.0426935 35.370098 9.3437677 35.645369 9.4423177 L 44.673759 12.674679 C 44.922353 12.763722 45.19048 12.654639 45.312996 12.430249 L 45.313513 12.429732 C 45.313804 12.429196 45.314257 12.428203 45.314547 12.427665 C 45.327011 12.404481 45.3395 12.3814 45.348653 12.355835 L 45.533655 11.839071 C 45.632215 11.563811 45.489562 11.262736 45.214294 11.164176 L 36.186422 7.9318156 C 36.117602 7.9073156 36.047145 7.8976265 35.978682 7.9013265 z M 45.314547 12.427665 C 45.318256 12.42134 45.321969 12.415106 45.325399 12.408545 C 45.323702 12.411739 45.321481 12.414707 45.319714 12.417847 C 45.317875 12.421115 45.316456 12.424453 45.314547 12.427665 z M 33.436719 11.003463 A 16.831654 16.831654 0 0 0 16.605188 27.834993 A 16.831654 16.831654 0 0 0 33.436719 44.666524 L 50.254814 44.666524 C 47.427661 43.909024 45.779457 42.205085 44.826204 40.188245 A 16.831654 16.831654 0 0 0 50.26825 27.834993 A 16.831654 16.831654 0 0 0 33.436719 11.003463 z M 68.373088 12.205973 L 68.373088 32.024919 L 72.452425 32.024919 L 72.452425 24.246582 C 72.452425 23.093173 72.879115 22.516455 73.73245 22.516455 C 74.088788 22.516455 74.36545 22.661391 74.562374 22.952087 C 74.768675 23.233407 74.871916 23.627553 74.871916 24.133927 L 74.871916 32.024919 L 78.964689 32.024919 L 78.964689 22.178491 C 78.964689 21.062591 78.70227 20.200061 78.17714 19.590535 C 77.661388 18.971633 76.934643 18.662427 75.996912 18.662427 C 74.684088 18.662427 73.526078 19.360687 72.522705 20.757906 L 72.452425 20.757906 L 72.452425 12.205973 L 68.373088 12.205973 z M 107.88902 13.246737 L 112.39004 32.024919 L 116.18774 32.024919 L 117.96024 23.880713 C 118.0634 23.393093 118.23224 22.422746 118.46667 20.969263 L 118.523 20.969263 C 118.65428 21.822598 118.81855 22.708522 119.01547 23.627498 L 120.80141 32.024919 L 124.65596 32.024919 L 129.15697 13.246737 L 124.95103 13.246737 L 122.64419 24.443469 L 122.58787 24.443469 L 120.36578 13.246737 L 116.65231 13.246737 L 114.45761 24.570076 L 114.40129 24.570076 L 111.98231 13.246737 L 107.88902 13.246737 z M 133.21409 13.246737 L 133.21409 32.024919 L 141.86473 32.024919 L 141.86473 28.015861 L 137.47585 28.015861 L 137.47585 24.597982 L 141.25959 24.597982 L 141.25959 20.701579 L 137.47585 20.701579 L 137.47585 17.241325 L 141.8363 17.241325 L 141.8363 13.246737 L 133.21409 13.246737 z M 146.99051 13.246737 L 146.99051 32.024919 L 152.56071 32.024919 C 154.41742 32.024919 155.91312 31.528049 157.04778 30.534054 C 158.18244 29.540059 158.75 28.231503 158.75 26.609229 C 158.75 24.583729 157.83559 23.210086 156.00701 22.488033 C 157.61991 21.484661 158.42651 20.157804 158.42651 18.507397 C 158.42651 16.978895 157.87318 15.72222 156.76666 14.737602 C 155.66013 13.743607 153.84556 13.246737 151.32306 13.246737 L 146.99051 13.246737 z M 99.639913 15.637805 L 99.639913 19.084106 L 98.092721 19.084106 L 98.092721 22.460128 L 99.639913 22.460128 L 99.639913 32.024919 L 103.7053 32.024919 L 103.7053 22.488033 L 105.32277 22.488033 L 105.32277 19.084106 L 103.7332 19.084106 L 103.7332 15.637805 L 99.639913 15.637805 z M 151.25278 16.84755 C 152.24678 16.866305 152.96895 17.026 153.41906 17.326074 C 153.87855 17.626148 154.10791 18.156079 154.10791 18.915641 C 154.10791 20.190955 153.15638 20.851579 151.25278 20.898466 L 151.25278 16.84755 z M 61.291866 18.634005 C 59.866515 18.634005 58.703928 19.267176 57.803707 20.533114 C 56.903485 21.79905 56.453402 23.439689 56.453402 25.455811 C 56.453402 27.584461 56.889242 29.28207 57.761332 30.548006 C 58.6428 31.804566 59.810478 32.432646 61.263961 32.432646 C 62.248579 32.432646 63.228076 32.104622 64.203316 31.44821 L 64.203316 28.072188 C 63.640678 28.362885 63.153475 28.508337 62.740873 28.508337 C 62.065707 28.508337 61.5312 28.241343 61.137354 27.706836 C 60.743506 27.172329 60.546175 26.440492 60.546175 25.512138 C 60.546175 24.630671 60.748081 23.927318 61.151306 23.402189 C 61.55453 22.867682 62.084461 22.600688 62.740873 22.600688 C 63.181607 22.600688 63.678477 22.74614 64.231738 23.036837 L 64.231738 19.689237 C 63.265876 18.985939 62.285861 18.634005 61.291866 18.634005 z M 87.044816 18.662427 C 85.835143 18.662427 84.860221 19.276264 84.119413 20.504692 C 83.378605 21.73312 83.007853 23.383425 83.007853 25.455811 C 83.007853 27.612593 83.373513 29.319352 84.104944 30.575911 C 84.836374 31.832471 85.816388 32.461068 87.044816 32.461068 C 87.673096 32.461068 88.21727 32.287647 88.676758 31.940686 C 89.145623 31.593725 89.62825 31.054127 90.125248 30.322697 L 90.181576 30.322697 L 90.181576 32.024919 L 94.24696 32.024919 L 94.24696 19.084106 L 90.15367 19.084106 L 90.15367 20.701579 L 90.097343 20.701579 C 89.609723 19.988903 89.140822 19.473215 88.69071 19.154386 C 88.2406 18.82618 87.691851 18.662427 87.044816 18.662427 z M 27.761096 20.576522 A 2.1620636 2.1620636 0 0 1 29.923238 22.738664 A 2.1620636 2.1620636 0 0 1 27.761096 24.900806 A 2.1620636 2.1620636 0 0 1 25.599471 22.738664 A 2.1620636 2.1620636 0 0 1 27.761096 20.576522 z M 39.112341 20.576522 A 2.1620636 2.1620636 0 0 1 41.273966 22.738664 A 2.1620636 2.1620636 0 0 1 39.112341 24.900806 A 2.1620636 2.1620636 0 0 1 36.950199 22.738664 A 2.1620636 2.1620636 0 0 1 39.112341 20.576522 z M 88.606478 22.263241 C 89.656737 22.263241 90.181576 23.336829 90.181576 25.484233 C 90.181576 27.716033 89.675038 28.831832 88.662288 28.831832 C 87.565143 28.831832 87.016911 27.716033 87.016911 25.484233 C 87.016911 23.336829 87.546842 22.263241 88.606478 22.263241 z M 151.25278 24.302909 L 151.60418 24.302909 C 153.52653 24.302909 154.48773 24.973201 154.48773 26.314156 C 154.48773 27.036209 154.21616 27.556472 153.67227 27.875301 C 153.13777 28.184753 152.33117 28.349024 151.25278 28.367778 L 151.25278 24.302909 z "/></svg>